<svg version="1.1" xmlns="http://www.w3.org/2000/svg" xmlns:xlink="http://www.w3.org/1999/xlink" width="255" height="255" viewBox="0,0,255,255"><g transform="translate(-112.5,-52.5)"><g data-paper-data="{&quot;isPaintingLayer&quot;:true}" fill-rule="nonzero" stroke="#000000" stroke-linejoin="miter" stroke-miterlimit="10" stroke-dasharray="" stroke-dashoffset="0" style="mix-blend-mode: normal"><g><path d="M115,180c0,-69.03559 55.96441,-125 125,-125c69.0356,0 125,55.96441 125,125c0,69.0356 -55.9644,125 -125,125c-69.03559,0 -125,-55.9644 -125,-125z" fill="none" stroke-width="5" stroke-linecap="butt"/><path d="M220.48078,57.66346l39.03844,244.67308" fill="none" stroke-width="2.5" stroke-linecap="round"/><path d="M359.02667,145.65063l-238.05334,68.69876" fill="none" stroke-width="2.5" stroke-linecap="round"/><path d="M335.70229,258.66575l-191.40458,-157.33149" fill="none" stroke-width="2.5" stroke-linecap="round"/><path d="M199.28315,297.00156l81.43371,-234.00312" data-paper-data="{&quot;index&quot;:null}" fill="none" stroke-width="2.5" stroke-linecap="round"/><path d="M228.90084,303.38572l22.19832,-246.77144" fill="none" stroke-width="2.5" stroke-linecap="round"/><path d="M287.73293,294.31883l-95.46585,-228.63767" data-paper-data="{&quot;index&quot;:null}" fill="none" stroke-width="2.5" stroke-linecap="round"/><path d="M363.79057,175.1913l-247.58113,9.61741" data-paper-data="{&quot;index&quot;:null}" fill="none" stroke-width="2.5" stroke-linecap="round"/><path d="M347.75845,118.88254l-215.5169,122.23492" data-paper-data="{&quot;index&quot;:null}" fill="none" stroke-width="2.5" stroke-linecap="round"/><path d="M352.13595,232.65697l-224.2719,-105.31394" data-paper-data="{&quot;index&quot;:null}" fill="none" stroke-width="2.5" stroke-linecap="round"/><path d="M173.82718,284.73006l132.34564,-209.46012" data-paper-data="{&quot;index&quot;:null}" fill="none" stroke-width="2.5" stroke-linecap="round"/><path d="M361.30093,205.16572l-242.60186,-50.33144" data-paper-data="{&quot;index&quot;:null}" fill="none" stroke-width="2.5" stroke-linecap="round"/><path d="M314.05732,279.31134l-148.11463,-198.62267" data-paper-data="{&quot;index&quot;:null}" fill="none" stroke-width="2.5" stroke-linecap="round"/><path d="M329.51875,94.36344l-179.0375,171.27314" data-paper-data="{&quot;index&quot;:null}" fill="none" stroke-width="2.5" stroke-linecap="round"/><path d="M154,180c0,-47.49649 38.50351,-86 86,-86c47.49649,0 86,38.50351 86,86c0,47.49649 -38.50351,86 -86,86c-47.49649,0 -86,-38.50351 -86,-86z" fill="#ffffff" stroke-width="5" stroke-linecap="butt"/></g></g></g></svg>