<svg version="1.1" xmlns="http://www.w3.org/2000/svg" xmlns:xlink="http://www.w3.org/1999/xlink" width="73.74219" height="117.13853" viewBox="0,0,73.74219,117.13853"><defs><linearGradient x1="-25.69989" y1="102.64529" x2="-52.37592" y2="102.6258" gradientUnits="userSpaceOnUse" id="color-1"><stop offset="0" stop-color="#ee2a7b"/><stop offset="1" stop-color="#811150"/></linearGradient></defs><g transform="translate(-203.28001,-133.50691)"><g data-paper-data="{&quot;isPaintingLayer&quot;:true}" fill-rule="nonzero" stroke-linecap="butt" stroke-linejoin="miter" stroke-miterlimit="10" stroke-dasharray="" stroke-dashoffset="0" style="mix-blend-mode: normal"><path d="M237.04667,173.67255c0,0 -1.75821,1.75585 -5.40794,5.3992c-1.1388,1.13826 -2.98572,1.13691 -4.12369,-0.00301c-1.1388,-1.13938 -1.13744,-2.98578 0.00301,-4.12457c4.49966,-4.49311 10.38729,-10.37188 10.38729,-10.37188c1.13939,-1.13797 2.98608,-1.13661 4.12428,0.00301c0,0 6.8131,6.82219 10.45586,10.47086c1.13826,1.13962 1.13661,2.98572 -0.00301,4.12451c-1.13963,1.13826 -2.98602,1.13691 -4.12428,-0.00301c-4.49281,-4.49966 -5.47852,-5.47504 -5.47852,-5.47504c0,0 -0.0166,14.51771 -0.02038,19.67329c-0.00118,1.6108 -1.30753,2.91555 -2.91833,2.91437c-1.61056,-0.00119 -2.91555,-1.30789 -2.91443,-2.91863c0.00449,-6.14932 0.02014,-19.68912 0.02014,-19.68912z" data-paper-data="{&quot;index&quot;:null}" fill="url(#color-1)" stroke="none" stroke-width="0"/><path d="M228.32092,157.61508v-23.35817h23.35817v23.35817z" fill="#ffffff" stroke="#000000" stroke-width="1.5"/><path d="M228.32092,225.74309v-23.35817h23.35817v23.35817z" fill="#00dfff" stroke="#000000" stroke-width="1.5"/><text transform="translate(203.53001,244.39544) scale(0.5,0.5)" font-size="40" xml:space="preserve" fill="#000000" fill-rule="nonzero" stroke="none" stroke-width="1" stroke-linecap="butt" stroke-linejoin="miter" stroke-miterlimit="10" stroke-dasharray="" stroke-dashoffset="0" font-family="Sans Serif" font-weight="normal" text-anchor="start" style="mix-blend-mode: normal"><tspan x="0" dy="0">decrypt</tspan></text></g></g></svg>