<svg version="1.1" xmlns="http://www.w3.org/2000/svg" xmlns:xlink="http://www.w3.org/1999/xlink" width="73.94531" height="117.13853" viewBox="0,0,73.94531,117.13853"><defs><linearGradient x1="-25.69989" y1="257.35469" x2="-52.37592" y2="257.37418" gradientUnits="userSpaceOnUse" id="color-1"><stop offset="0" stop-color="#ee2a7b"/><stop offset="1" stop-color="#811150"/></linearGradient></defs><g transform="translate(-203.28001,-133.50691)"><g stroke-miterlimit="10"><path d="M237.04667,186.32745c0,0 -0.01565,-13.5398 -0.02014,-19.68912c-0.00112,-1.61074 1.30387,-2.91744 2.91443,-2.91863c1.6108,-0.00118 2.91715,1.30357 2.91833,2.91437c0.00378,5.15558 0.02038,19.67329 0.02038,19.67329c0,0 0.98571,-0.97538 5.47852,-5.47504c1.13826,-1.13992 2.98465,-1.14127 4.12428,-0.00301c1.13962,1.13879 1.14127,2.98489 0.00301,4.12451c-3.64276,3.64867 -10.45586,10.47086 -10.45586,10.47086c-1.1382,1.13962 -2.98489,1.14098 -4.12428,0.00301c0,0 -5.88763,-5.87877 -10.38729,-10.37188c-1.14045,-1.13879 -1.14181,-2.98519 -0.00301,-4.12457c1.13797,-1.13992 2.98489,-1.14127 4.12369,-0.00301c3.64973,3.64335 5.40794,5.3992 5.40794,5.3992z" fill="url(#color-1)" stroke="none" stroke-width="0"/><path d="M228.32092,157.61508v-23.35817h23.35817v23.35817z" fill="#ffffff" stroke="#000000" stroke-width="1.5"/><path d="M228.32092,225.74309v-23.35817h23.35817v23.35817z" fill="#646464" stroke="#000000" stroke-width="1.5"/><text transform="translate(203.53001,244.39544) scale(0.5,0.5)" font-size="40" xml:space="preserve" fill="#000000" stroke="none" stroke-width="1" font-family="Sans Serif" font-weight="normal" text-anchor="start"><tspan x="0" dy="0">encrypt</tspan></text></g></g></svg>