<svg version="1.1" xmlns="http://www.w3.org/2000/svg" xmlns:xlink="http://www.w3.org/1999/xlink" width="340.91181" height="343.31425" viewBox="0,0,340.91181,343.31425"><g transform="translate(-69.59072,-7.18829)"><g stroke-miterlimit="10"><path d="M72.13213,173.33859c3.67901,-92.71087 81.81843,-164.88546 174.52931,-161.20645c92.71087,3.67901 164.88546,81.81843 161.20646,174.52931c-3.67901,92.71087 -81.81843,164.88546 -174.52931,161.20646c-92.71087,-3.67901 -164.88546,-81.81843 -161.20645,-174.52931z" fill="#ffffff" stroke="#000000" stroke-width="5" stroke-linecap="butt"/><path d="M115.09831,175.0436c2.73735,-68.9813 60.87681,-122.68263 129.85811,-119.94528c68.98131,2.73736 122.68264,60.87681 119.94528,129.85811c-2.73735,68.98131 -60.8768,122.68263 -129.85811,119.94528c-68.9813,-2.73735 -122.68263,-60.8768 -119.94528,-129.85811z" fill="#646464" stroke="#000000" stroke-width="5" stroke-linecap="butt"/><path d="M259.69373,345.33121l-39.38743,-330.66241" fill="none" stroke="#000000" stroke-width="2.5" stroke-linecap="round"/><path d="M401.67657,140.21385l-323.35313,79.57233" fill="none" stroke="#000000" stroke-width="2.5" stroke-linecap="round"/><path d="M364.33053,290.74373l-248.66104,-221.48744" fill="none" stroke="#000000" stroke-width="2.5" stroke-linecap="round"/><path d="M179.08442,334.95659l121.83118,-309.91315" fill="none" stroke="#000000" stroke-width="2.5" stroke-linecap="round"/><path d="M261.48095,14.89151l-42.96187,330.21701" fill="none" stroke="#000000" stroke-width="2.5" stroke-linecap="round"/><path d="M298.01041,336.06745l-116.02079,-312.13488" fill="none" stroke="#000000" stroke-width="2.5" stroke-linecap="round"/><path d="M406.49995,180.13917l-332.99988,-0.27831" fill="none" stroke="#000000" stroke-width="2.5" stroke-linecap="round"/><path d="M387.97051,103.66534l-295.941,152.66934" fill="none" stroke="#000000" stroke-width="2.5" stroke-linecap="round"/><path d="M387.78604,256.69121l-295.57206,-153.38238" fill="none" stroke="#000000" stroke-width="2.5" stroke-linecap="round"/><path d="M334.44755,42.87994l-188.89508,274.24013" fill="none" stroke="#000000" stroke-width="2.5" stroke-linecap="round"/><path d="M401.55912,220.26043l-323.11824,-80.52084" fill="none" stroke="#000000" stroke-width="2.5" stroke-linecap="round"/><path d="M334.16232,317.3161l-188.32463,-274.63217" fill="none" stroke="#000000" stroke-width="2.5" stroke-linecap="round"/><path d="M364.78229,69.76556l-249.56455,220.4689" fill="none" stroke="#000000" stroke-width="2.5" stroke-linecap="round"/><text transform="translate(228.50001,37.42166) scale(0.88227,0.69502)" font-size="40" xml:space="preserve" fill="#646464" stroke="none" stroke-width="1" stroke-linecap="butt" font-family="Sans Serif" font-weight="normal" text-anchor="start"><tspan x="0" dy="0">A</tspan></text><text transform="translate(264.50001,45.75001) scale(0.88227,0.69502)" font-size="40" xml:space="preserve" fill="#646464" stroke="none" stroke-width="1" stroke-linecap="butt" font-family="Sans Serif" font-weight="normal" text-anchor="start"><tspan x="0" dy="0">B</tspan></text><text transform="translate(296.50001,57.75001) scale(0.88227,0.69502)" font-size="40" xml:space="preserve" fill="#646464" stroke="none" stroke-width="1" stroke-linecap="butt" font-family="Sans Serif" font-weight="normal" text-anchor="start"><tspan x="0" dy="0">C</tspan></text><text transform="translate(327.77932,75.79905) scale(0.88227,0.69502)" font-size="40" xml:space="preserve" fill="#646464" stroke="none" stroke-width="1" stroke-linecap="butt" font-family="Sans Serif" font-weight="normal" text-anchor="start"><tspan x="0" dy="0">D</tspan></text><text transform="translate(350.50001,102.75001) scale(0.88227,0.69502)" font-size="40" xml:space="preserve" fill="#646464" stroke="none" stroke-width="1" stroke-linecap="butt" font-family="Sans Serif" font-weight="normal" text-anchor="start"><tspan x="0" dy="0">E</tspan></text><text transform="translate(371.02453,136.65191) scale(0.88227,0.69502)" font-size="40" xml:space="preserve" fill="#646464" stroke="none" stroke-width="1" stroke-linecap="butt" font-family="Sans Serif" font-weight="normal" text-anchor="start"><tspan x="0" dy="0">F</tspan></text><text transform="translate(373.50001,170.75001) scale(0.88227,0.69502)" font-size="40" xml:space="preserve" fill="#646464" stroke="none" stroke-width="1" stroke-linecap="butt" font-family="Sans Serif" font-weight="normal" text-anchor="start"><tspan x="0" dy="0">G</tspan></text><text transform="translate(373.50001,208.75001) scale(0.88227,0.69502)" font-size="40" xml:space="preserve" fill="#646464" stroke="none" stroke-width="1" stroke-linecap="butt" font-family="Sans Serif" font-weight="normal" text-anchor="start"><tspan x="0" dy="0">H</tspan></text><text transform="translate(189.50001,331.75001) scale(0.88227,0.69502)" font-size="40" xml:space="preserve" fill="#646464" stroke="none" stroke-width="1" stroke-linecap="butt" font-family="Sans Serif" font-weight="normal" text-anchor="start"><tspan x="0" dy="0">O</tspan></text><text transform="translate(84.50001,205.75001) scale(0.88227,0.69502)" font-size="40" xml:space="preserve" fill="#646464" stroke="none" stroke-width="1" stroke-linecap="butt" font-family="Sans Serif" font-weight="normal" text-anchor="start"><tspan x="0" dy="0">T</tspan></text><text transform="translate(370.73028,242.07836) scale(0.88227,0.69502)" font-size="40" xml:space="preserve" fill="#646464" stroke="none" stroke-width="1" stroke-linecap="butt" font-family="Sans Serif" font-weight="normal" text-anchor="start"><tspan x="0" dy="0">I</tspan></text><text transform="translate(81.50001,172.75001) scale(0.88227,0.69502)" font-size="40" xml:space="preserve" fill="#646464" stroke="none" stroke-width="1" stroke-linecap="butt" font-family="Sans Serif" font-weight="normal" text-anchor="start"><tspan x="0" dy="0">U</tspan></text><text transform="translate(90.50001,138.75) scale(0.88227,0.69502)" font-size="40" xml:space="preserve" fill="#646464" stroke="none" stroke-width="1" stroke-linecap="butt" font-family="Sans Serif" font-weight="normal" text-anchor="start"><tspan x="0" dy="0">V</tspan></text><text transform="translate(103.50001,108.75001) scale(0.88227,0.69502)" font-size="40" xml:space="preserve" fill="#646464" stroke="none" stroke-width="1" stroke-linecap="butt" font-family="Sans Serif" font-weight="normal" text-anchor="start"><tspan x="0" dy="0">W</tspan></text><text transform="translate(131.5,77.75001) scale(0.88227,0.69502)" font-size="40" xml:space="preserve" fill="#646464" stroke="none" stroke-width="1" stroke-linecap="butt" font-family="Sans Serif" font-weight="normal" text-anchor="start"><tspan x="0" dy="0">X</tspan></text><text transform="translate(162.5,58.75001) scale(0.88227,0.69502)" font-size="40" xml:space="preserve" fill="#646464" stroke="none" stroke-width="1" stroke-linecap="butt" font-family="Sans Serif" font-weight="normal" text-anchor="start"><tspan x="0" dy="0">Y</tspan></text><text transform="translate(195.50001,44.75001) scale(0.88227,0.69502)" font-size="40" xml:space="preserve" fill="#646464" stroke="none" stroke-width="1" stroke-linecap="butt" font-family="Sans Serif" font-weight="normal" text-anchor="start"><tspan x="0" dy="0">Z</tspan></text><text transform="translate(161.5,317.75001) scale(0.88227,0.69502)" font-size="40" xml:space="preserve" fill="#646464" stroke="none" stroke-width="1" stroke-linecap="butt" font-family="Sans Serif" font-weight="normal" text-anchor="start"><tspan x="0" dy="0">P</tspan></text><text transform="translate(129.5,296.75001) scale(0.88227,0.69502)" font-size="40" xml:space="preserve" fill="#646464" stroke="none" stroke-width="1" stroke-linecap="butt" font-family="Sans Serif" font-weight="normal" text-anchor="start"><tspan x="0" dy="0">Q</tspan></text><text transform="translate(107.50001,271.75001) scale(0.88227,0.69502)" font-size="40" xml:space="preserve" fill="#646464" stroke="none" stroke-width="1" stroke-linecap="butt" font-family="Sans Serif" font-weight="normal" text-anchor="start"><tspan x="0" dy="0">R</tspan></text><text transform="translate(92.50001,240.75001) scale(0.88227,0.69502)" font-size="40" xml:space="preserve" fill="#646464" stroke="none" stroke-width="1" stroke-linecap="butt" font-family="Sans Serif" font-weight="normal" text-anchor="start"><tspan x="0" dy="0">S</tspan></text><text transform="translate(357.87741,271.27453) scale(0.88227,0.69502)" font-size="40" xml:space="preserve" fill="#646464" stroke="none" stroke-width="1" stroke-linecap="butt" font-family="Sans Serif" font-weight="normal" text-anchor="start"><tspan x="0" dy="0">J</tspan></text><text transform="translate(325.40193,301.1274) scale(0.88227,0.69502)" font-size="40" xml:space="preserve" fill="#646464" stroke="none" stroke-width="1" stroke-linecap="butt" font-family="Sans Serif" font-weight="normal" text-anchor="start"><tspan x="0" dy="0">K</tspan></text><text transform="translate(298.50001,319.65192) scale(0.88227,0.69502)" font-size="40" xml:space="preserve" fill="#646464" stroke="none" stroke-width="1" stroke-linecap="butt" font-family="Sans Serif" font-weight="normal" text-anchor="start"><tspan x="0" dy="0">L</tspan></text><text transform="translate(258.50001,332.75001) scale(0.88227,0.69502)" font-size="40" xml:space="preserve" fill="#646464" stroke="none" stroke-width="1" stroke-linecap="butt" font-family="Sans Serif" font-weight="normal" text-anchor="start"><tspan x="0" dy="0">M</tspan></text><text transform="translate(225.50001,335.75001) scale(0.88227,0.69502)" font-size="40" xml:space="preserve" fill="#646464" stroke="none" stroke-width="1" stroke-linecap="butt" font-family="Sans Serif" font-weight="normal" text-anchor="start"><tspan x="0" dy="0">N</tspan></text><path d="M235.50001,46.00001c0,-2.76142 2.23858,-5 5,-5c2.76142,0 5,2.23858 5,5c0,2.76142 -2.23858,5 -5,5c-2.76142,0 -5,-2.23858 -5,-5z" fill="#000000" stroke="none" stroke-width="NaN" stroke-linecap="butt"/><path d="M146.32326,176.28269c2.05303,-51.73623 45.65783,-92.01243 97.39407,-89.95941c51.73624,2.05303 92.01243,45.65783 89.95941,97.39407c-2.05303,51.73624 -45.65783,92.01243 -97.39407,89.95941c-51.73623,-2.05303 -92.01243,-45.65783 -89.95941,-97.39407z" fill="#ffffff" stroke="#000000" stroke-width="5" stroke-linecap="butt"/><text transform="translate(204.58775,114.64715) scale(0.58844,0.50729)" font-size="40" xml:space="preserve" fill="#00acd9" stroke="none" stroke-width="1" stroke-linecap="butt" font-family="Sans Serif" font-weight="normal" text-anchor="start"><tspan x="0" dy="0">cipher</tspan></text><text transform="translate(217.22739,256.74275) scale(0.58844,0.50729)" font-size="40" xml:space="preserve" fill="#00acd9" stroke="none" stroke-width="1" stroke-linecap="butt" font-family="Sans Serif" font-weight="normal" text-anchor="start"><tspan x="0" dy="0">disk</tspan></text></g></g></svg>