<svg version="1.1" xmlns="http://www.w3.org/2000/svg" xmlns:xlink="http://www.w3.org/1999/xlink" width="257" height="257" viewBox="0,0,257,257"><g transform="translate(-154.5,-94.5)"><g data-paper-data="{&quot;isPaintingLayer&quot;:true}" fill="none" fill-rule="nonzero" stroke="#000000" stroke-linejoin="miter" stroke-miterlimit="10" stroke-dasharray="" stroke-dashoffset="0" style="mix-blend-mode: normal"><g><path d="M158,223c0,-69.0356 55.9644,-125 125,-125c69.0356,0 125,55.9644 125,125c0,69.0356 -55.9644,125 -125,125c-69.0356,0 -125,-55.9644 -125,-125z" stroke-width="7" stroke-linecap="butt"/><path d="M263.48078,100.66346l39.03844,244.67307" stroke-width="2.5" stroke-linecap="round"/><path d="M402.02667,188.65062l-238.05334,68.69876" stroke-width="2.5" stroke-linecap="round"/><path d="M378.70229,301.66574l-191.40458,-157.33149" stroke-width="2.5" stroke-linecap="round"/><path d="M242.28315,340.00156l81.43371,-234.00312" data-paper-data="{&quot;index&quot;:null}" stroke-width="2.5" stroke-linecap="round"/><path d="M271.90084,346.38572l22.19832,-246.77144" stroke-width="2.5" stroke-linecap="round"/><path d="M330.73293,337.31883l-95.46586,-228.63767" data-paper-data="{&quot;index&quot;:null}" stroke-width="2.5" stroke-linecap="round"/><path d="M406.79057,218.19129l-247.58113,9.61741" data-paper-data="{&quot;index&quot;:null}" stroke-width="2.5" stroke-linecap="round"/><path d="M175.24155,284.11746l215.5169,-122.23492" data-paper-data="{&quot;index&quot;:null}" stroke-width="2.5" stroke-linecap="round"/><path d="M170.86405,170.34304l224.2719,105.31394" data-paper-data="{&quot;index&quot;:null}" stroke-width="2.5" stroke-linecap="round"/><path d="M349.17282,118.26993l-132.34564,209.46012" data-paper-data="{&quot;index&quot;:null}" stroke-width="2.5" stroke-linecap="round"/><path d="M161.69907,197.83428l242.60185,50.33144" data-paper-data="{&quot;index&quot;:null}" stroke-width="2.5" stroke-linecap="round"/><path d="M357.05731,322.31134l-148.11463,-198.62267" data-paper-data="{&quot;index&quot;:null}" stroke-width="2.5" stroke-linecap="round"/><path d="M372.51875,137.36344l-179.0375,171.27313" data-paper-data="{&quot;index&quot;:null}" stroke-width="2.5" stroke-linecap="round"/></g></g></g></svg>