<svg version="1.1" xmlns="http://www.w3.org/2000/svg" xmlns:xlink="http://www.w3.org/1999/xlink" width="343" height="343" viewBox="0,0,343,343"><g transform="translate(-68.5,-8.5)"><g data-paper-data="{&quot;isPaintingLayer&quot;:true}" fill="none" fill-rule="nonzero" stroke="#000000" stroke-linejoin="miter" stroke-miterlimit="10" stroke-dasharray="" stroke-dashoffset="0" style="mix-blend-mode: normal"><g><path d="M72,180c0,-92.78384 75.21616,-168 168,-168c92.78384,0 168,75.21616 168,168c0,92.78384 -75.21616,168 -168,168c-92.78384,0 -168,-75.21616 -168,-168z" stroke-width="7" stroke-linecap="butt"/><path d="M213.76617,15.57969l52.46766,328.84061" stroke-width="2.5" stroke-linecap="round"/><path d="M399.97184,133.83444l-319.94369,92.33113" stroke-width="2.5" stroke-linecap="round"/><path d="M111.37612,74.27324l257.24776,211.45352" stroke-width="2.5" stroke-linecap="round"/><path d="M185.27655,337.2501l109.4469,-314.5002" data-paper-data="{&quot;index&quot;:null}" stroke-width="2.5" stroke-linecap="round"/><path d="M225.08273,345.83041l29.83454,-331.66082" stroke-width="2.5" stroke-linecap="round"/><path d="M304.15306,333.64451l-128.30611,-307.28903" data-paper-data="{&quot;index&quot;:null}" stroke-width="2.5" stroke-linecap="round"/><path d="M406.37452,173.5371l-332.74904,12.9258" data-paper-data="{&quot;index&quot;:null}" stroke-width="2.5" stroke-linecap="round"/><path d="M384.82736,97.85813l-289.65472,164.28373" data-paper-data="{&quot;index&quot;:null}" stroke-width="2.5" stroke-linecap="round"/><path d="M390.71071,250.77097l-301.42143,-141.54193" data-paper-data="{&quot;index&quot;:null}" stroke-width="2.5" stroke-linecap="round"/><path d="M328.93627,39.24279l-177.87254,281.5144" data-paper-data="{&quot;index&quot;:null}" stroke-width="2.5" stroke-linecap="round"/><path d="M403.02844,213.82272l-326.05689,-67.64545" data-paper-data="{&quot;index&quot;:null}" stroke-width="2.5" stroke-linecap="round"/><path d="M339.53303,313.47444l-199.06606,-266.94887" data-paper-data="{&quot;index&quot;:null}" stroke-width="2.5" stroke-linecap="round"/><path d="M360.3132,64.90446l-240.6264,230.19109" data-paper-data="{&quot;index&quot;:null}" stroke-width="2.5" stroke-linecap="round"/></g></g></g></svg>