<svg version="1.1" xmlns="http://www.w3.org/2000/svg" xmlns:xlink="http://www.w3.org/1999/xlink" width="343" height="343" viewBox="0,0,343,343"><g transform="translate(-68.5,-8.5)"><g data-paper-data="{&quot;isPaintingLayer&quot;:true}" fill-rule="nonzero" stroke="#000000" stroke-linejoin="miter" stroke-miterlimit="10" stroke-dasharray="" stroke-dashoffset="0" style="mix-blend-mode: normal"><path d="M72,180c0,-92.78384 75.21616,-168 168,-168c92.78384,0 168,75.21616 168,168c0,92.78384 -75.21616,168 -168,168c-92.78384,0 -168,-75.21616 -168,-168z" fill="none" stroke-width="7" stroke-linecap="butt"/><path d="M112.5,180c0,-70.4163 57.0837,-127.5 127.5,-127.5c70.4163,0 127.5,57.0837 127.5,127.5c0,70.4163 -57.0837,127.5 -127.5,127.5c-70.4163,0 -127.5,-57.0837 -127.5,-127.5z" fill="none" stroke-width="7" stroke-linecap="butt"/><path d="M248.44766,13.71444l-16.89532,332.57112" fill="none" stroke-width="2.5" stroke-linecap="round"/><path d="M405.52505,162.00815l-331.05011,35.98371" fill="none" stroke-width="2.5" stroke-linecap="round"/><path d="M130.50756,54.56613l218.98488,250.86774" fill="none" stroke-width="2.5" stroke-linecap="round"/><path d="M145.35118,316.98121l189.29764,-273.96241" data-paper-data="{&quot;index&quot;:null}" fill="none" stroke-width="2.5" stroke-linecap="round"/><path d="M187.81944,338.11211l104.36111,-316.22422" fill="none" stroke-width="2.5" stroke-linecap="round"/><path d="M273.53086,343.08872l-67.06172,-326.17745" data-paper-data="{&quot;index&quot;:null}" fill="none" stroke-width="2.5" stroke-linecap="round"/><path d="M405.03102,202.0684l-330.06203,-44.13679" data-paper-data="{&quot;index&quot;:null}" fill="none" stroke-width="2.5" stroke-linecap="round"/><path d="M84.33905,239.09246l311.3219,-118.18493" data-paper-data="{&quot;index&quot;:null}" fill="none" stroke-width="2.5" stroke-linecap="round"/><path d="M373.34349,279.70839l-266.68699,-199.41677" data-paper-data="{&quot;index&quot;:null}" fill="none" stroke-width="2.5" stroke-linecap="round"/><path d="M373.3435,80.29161l-266.68699,199.41677" data-paper-data="{&quot;index&quot;:null}" fill="none" stroke-width="2.5" stroke-linecap="round"/><path d="M394.0595,243.14997l-308.11901,-126.29994" data-paper-data="{&quot;index&quot;:null}" fill="none" stroke-width="2.5" stroke-linecap="round"/><path d="M312.69925,329.79008l-145.39851,-299.58016" data-paper-data="{&quot;index&quot;:null}" fill="none" stroke-width="2.5" stroke-linecap="round"/><path d="M156.5,180c0,-48.32491 37.38423,-87.5 83.5,-87.5c46.11577,0 83.5,39.17509 83.5,87.5c0,48.32491 -37.38423,87.5 -83.5,87.5c-46.11577,0 -83.5,-39.17509 -83.5,-87.5z" fill="#ffffff" stroke-width="7" stroke-linecap="butt"/></g></g></svg>